<?xml version="1.0" encoding="UTF-8" standalone="no"?>
<!-- Created with Inkscape (http://www.inkscape.org/) -->

<svg
   width="199.99994mm"
   height="199.99995mm"
   viewBox="0 0 199.99994 199.99995"
   version="1.1"
   id="svg5"
   xml:space="preserve"
   inkscape:version="1.2.2 (b0a8486541, 2022-12-01)"
   sodipodi:docname="logo.svg"
   inkscape:export-filename="logo.png"
   inkscape:export-xdpi="96"
   inkscape:export-ydpi="96"
   xmlns:inkscape="http://www.inkscape.org/namespaces/inkscape"
   xmlns:sodipodi="http://sodipodi.sourceforge.net/DTD/sodipodi-0.dtd"
   xmlns="http://www.w3.org/2000/svg"
   xmlns:svg="http://www.w3.org/2000/svg"><sodipodi:namedview
     id="namedview7"
     pagecolor="#505050"
     bordercolor="#eeeeee"
     borderopacity="1"
     inkscape:showpageshadow="0"
     inkscape:pageopacity="0"
     inkscape:pagecheckerboard="0"
     inkscape:deskcolor="#505050"
     inkscape:document-units="mm"
     showgrid="false"
     inkscape:zoom="0.4789471"
     inkscape:cx="357.03317"
     inkscape:cy="484.39588"
     inkscape:window-width="1366"
     inkscape:window-height="699"
     inkscape:window-x="0"
     inkscape:window-y="32"
     inkscape:window-maximized="1"
     inkscape:current-layer="g196" /><defs
     id="defs2"><clipPath
       clipPathUnits="userSpaceOnUse"
       id="clipPath200"><path
         d="M 0,566.929 H 566.929 V 0 H 0 Z"
         id="path198" /></clipPath></defs><g
     inkscape:label="Layer 1"
     inkscape:groupmode="layer"
     id="layer1"
     transform="translate(-220.00001)" /><g
     id="g194"
     transform="matrix(0.35277776,0,0,-0.35277778,-5.0620427e-6,199.99996)"
     inkscape:export-filename="./logo.png"
     inkscape:export-xdpi="96"
     inkscape:export-ydpi="96"><g
       id="g196"
       clip-path="url(#clipPath200)"><g
         id="g202"
         transform="translate(295.5329,413.1413)"
         style="fill:#afca0b;fill-opacity:1"><path
           d="m 0,0 c -5.818,-28.505 -18.324,-98.305 10.096,-121.143 33.241,-26.71 62.443,29.944 67.07,56.37 8.063,-39.24 -29.025,-104.346 -74.204,-75.055 C -40.035,-111.952 -22.185,-33.927 0,0"
           style="fill:#afca0b;fill-opacity:1;fill-rule:nonzero;stroke:none"
           id="path204" /></g><g
         id="g206"
         transform="translate(326.8327,355.3474)"><path
           d="M 0,0 C 10.761,0.03 19.669,-8.792 19.63,-19.524 19.593,-30.269 11.335,-39.067 0.171,-39.229 -10.666,-39.385 -19.603,-30.49 -19.615,-19.857 -19.626,-8.81 -10.954,-0.03 0,0"
           style="fill:#afca0b;fill-opacity:1;fill-rule:nonzero;stroke:none"
           id="path208" /></g><g
         id="g210"
         transform="translate(29.4865,170.4782)"><path
           d="m 0,0 c 0,0 296.875,155.641 425.169,3.212 0,0 8.164,-11.749 -4.855,-11.584 0,0 -78.419,147.529 -420.314,8.372"
           style="fill:#afca0b;fill-opacity:1;fill-rule:nonzero;stroke:none"
           id="path212" /></g><g
         id="g214"
         transform="translate(385.4743,272.0124)"><path
           d="M 0,0 C -1.57,1.765 -2.353,4.045 -2.353,6.847 V 39.526 H 7.223 V 7.687 C 7.223,6.397 7.42,5.529 7.812,5.082 8.202,4.634 8.791,4.411 9.575,4.411 h 0.716 c 0.251,0 0.488,0.026 0.713,0.083 0.224,0 0.475,0.028 0.757,0.084 l 1.007,-6.049 C 12.376,-1.695 11.872,-1.891 11.255,-2.058 10.752,-2.227 10.122,-2.366 9.365,-2.478 8.609,-2.589 7.756,-2.646 6.803,-2.646 3.835,-2.646 1.566,-1.764 0,0 m 6.719,56.579 c 0.952,-1.065 1.429,-2.436 1.429,-4.117 0,-1.679 -0.491,-3.08 -1.469,-4.201 -0.982,-1.12 -2.424,-1.68 -4.328,-1.68 -1.793,0 -3.178,0.546 -4.158,1.639 -0.98,1.091 -1.471,2.422 -1.471,3.99 0,1.735 0.491,3.165 1.471,4.285 0.98,1.118 2.45,1.68 4.411,1.68 1.791,0 3.162,-0.533 4.115,-1.596"
           style="fill:#afca0b;fill-opacity:1;fill-rule:nonzero;stroke:none"
           id="path216" /></g><g
         id="g218"
         transform="translate(427.6443,301.7082)"><path
           d="m 0,0 c -0.84,0.951 -1.694,1.765 -2.563,2.436 -0.869,0.673 -2.03,1.009 -3.485,1.009 -0.84,0 -1.778,-0.126 -2.815,-0.379 -1.037,-0.251 -2.003,-0.868 -2.898,-1.847 -0.897,-0.981 -1.638,-2.423 -2.225,-4.326 -0.589,-1.905 -0.883,-4.482 -0.883,-7.73 0,-3.304 0.294,-5.922 0.883,-7.853 0.587,-1.933 1.343,-3.433 2.266,-4.495 0.926,-1.065 1.918,-1.75 2.983,-2.059 1.063,-0.308 2.099,-0.461 3.109,-0.461 0.784,0 1.596,0.069 2.436,0.21 0.839,0.14 1.65,0.307 2.436,0.504 0.784,0.195 1.47,0.377 2.059,0.546 0.587,0.167 1.02,0.307 1.301,0.42 l 2.352,-6.049 C 4.789,-30.131 4.41,-30.298 3.822,-30.577 3.233,-30.86 2.437,-31.138 1.428,-31.418 0.42,-31.7 -0.786,-31.963 -2.185,-32.216 c -1.399,-0.252 -2.967,-0.377 -4.703,-0.377 -3.25,0 -6.021,0.49 -8.317,1.469 -2.297,0.98 -4.187,2.367 -5.67,4.158 -1.484,1.793 -2.577,3.948 -3.277,6.469 -0.702,2.52 -1.051,5.319 -1.051,8.4 0,3.698 0.491,6.974 1.471,9.83 0.978,2.856 2.336,5.249 4.074,7.182 1.736,1.933 3.78,3.402 6.133,4.409 2.352,1.009 4.872,1.513 7.56,1.513 2.632,0 4.858,-0.504 6.679,-1.513 C 2.533,8.317 4.087,6.916 5.376,5.125 Z"
           style="fill:#afca0b;fill-opacity:1;fill-rule:nonzero;stroke:none"
           id="path220" /></g><g
         id="g222"
         transform="translate(434.7839,311.5383)"><path
           d="m 0,0 h 7.561 l 1.68,9.828 7.897,1.763 V 0 H 27.47 l -1.176,-6.805 h -9.156 v -24.866 c 0,-1.457 0.39,-2.394 1.174,-2.814 0.785,-0.42 1.653,-0.63 2.606,-0.63 0.784,0 1.566,0.054 2.353,0.167 0.782,0.112 1.482,0.253 2.099,0.42 0.727,0.169 1.429,0.364 2.1,0.589 l 1.596,-6.301 -0.756,-0.253 c -0.503,-0.222 -1.248,-0.461 -2.226,-0.714 -0.98,-0.251 -2.128,-0.475 -3.443,-0.671 -1.318,-0.196 -2.76,-0.294 -4.329,-0.294 -1.568,0 -3.009,0.169 -4.326,0.504 -1.315,0.335 -2.45,0.881 -3.402,1.638 -0.953,0.756 -1.694,1.723 -2.226,2.899 -0.531,1.176 -0.797,2.631 -0.797,4.367 V -6.805 H 0 Z"
           style="fill:#afca0b;fill-opacity:1;fill-rule:nonzero;stroke:none"
           id="path224" /></g><g
         id="g226"
         transform="translate(480.2732,304.3972)"><path
           d="m 0,0 c -1.037,-0.729 -1.848,-1.75 -2.437,-3.066 -0.586,-1.318 -0.994,-2.856 -1.216,-4.621 -0.226,-1.764 -0.337,-3.654 -0.337,-5.67 0,-2.072 0.127,-4.032 0.378,-5.881 0.252,-1.847 0.715,-3.458 1.385,-4.829 0.673,-1.374 1.581,-2.452 2.732,-3.236 1.146,-0.784 2.616,-1.176 4.41,-1.176 1.624,0 2.952,0.364 3.989,1.092 1.037,0.727 1.849,1.751 2.437,3.067 0.589,1.315 0.994,2.842 1.219,4.578 0.222,1.736 0.336,3.613 0.336,5.629 0,2.071 -0.126,4.032 -0.379,5.881 -0.251,1.847 -0.714,3.471 -1.387,4.872 -0.67,1.4 -1.581,2.49 -2.73,3.276 C 7.252,0.7 5.782,1.092 3.991,1.092 2.365,1.092 1.036,0.727 0,0 m 18.86,2.436 c 2.911,-3.81 4.368,-9.046 4.368,-15.709 0,-3.137 -0.393,-6.064 -1.177,-8.779 -0.784,-2.717 -1.973,-5.069 -3.57,-7.057 -1.596,-1.989 -3.599,-3.557 -6.005,-4.704 -2.409,-1.148 -5.208,-1.722 -8.401,-1.722 -3.193,0 -5.952,0.491 -8.275,1.47 -2.324,0.979 -4.242,2.393 -5.755,4.243 -1.513,1.848 -2.618,4.088 -3.318,6.72 -0.701,2.632 -1.05,5.599 -1.05,8.905 0,3.193 0.391,6.145 1.176,8.862 0.784,2.716 1.975,5.069 3.571,7.057 1.597,1.987 3.597,3.555 6.006,4.703 2.406,1.149 5.209,1.723 8.401,1.723 6.439,0 11.116,-1.905 14.029,-5.712"
           style="fill:#afca0b;fill-opacity:1;fill-rule:nonzero;stroke:none"
           id="path228" /></g><g
         id="g230"
         transform="translate(527.6091,302.0446)"><path
           d="m 0,0 c -1.007,-0.504 -1.903,-1.191 -2.688,-2.057 -0.786,-0.87 -1.428,-1.92 -1.932,-3.152 -0.503,-1.232 -0.756,-2.603 -0.756,-4.116 v -23.018 h -9.577 v 21.169 c 0,3.362 -0.223,6.175 -0.671,8.444 -0.449,2.269 -0.926,4.101 -1.429,5.502 -0.617,1.624 -1.288,2.94 -2.016,3.949 l 7.561,3.023 c 0.503,-0.617 1.035,-1.373 1.596,-2.267 0.448,-0.786 0.895,-1.709 1.344,-2.772 0.448,-1.065 0.812,-2.325 1.092,-3.782 1.119,3.248 2.743,5.588 4.872,7.015 2.128,1.429 4.537,2.143 7.225,2.143 1.288,0 2.492,-0.155 3.612,-0.461 C 9.353,9.312 9.886,9.157 9.83,9.157 L 7.141,-0.167 c 0.055,0 -0.266,0.152 -0.966,0.46 C 5.475,0.602 4.424,0.756 3.025,0.756 2.016,0.756 1.009,0.503 0,0"
           style="fill:#afca0b;fill-opacity:1;fill-rule:nonzero;stroke:none"
           id="path232" /></g><path
         d="m 408.85,256.273 h -4.831 v 4.757 h 4.831 z m 0,-23.971 h -4.831 l -0.037,15.256 h -13.008 v 4.831 h 17.913 z m -6.949,23.971 h -10.89 c -0.657,0 -1.151,-0.164 -1.486,-0.492 -0.334,-0.329 -0.502,-0.809 -0.502,-1.44 v -22.039 h -4.831 v 22.039 c 0,0.83 0.105,1.574 0.316,2.229 0.211,0.656 0.495,1.236 0.843,1.737 0.358,0.502 0.762,0.93 1.22,1.283 0.457,0.353 0.937,0.641 1.441,0.864 0.498,0.222 1.004,0.387 1.513,0.492 0.509,0.106 0.992,0.158 1.449,0.158 h 10.927 z"
         style="fill:#afca0b;fill-opacity:1;fill-rule:nonzero;stroke:none"
         id="path234" /><g
         id="g236"
         transform="translate(431.7439,247.5583)"><path
           d="m 0,0 h -8.437 v -15.256 h -4.886 V 0 h -6.281 v 4.831 h 6.281 v 6.56 h 4.886 V 4.831 H 0 Z"
           style="fill:#afca0b;fill-opacity:1;fill-rule:nonzero;stroke:none"
           id="path238" /></g><g
         id="g240"
         transform="translate(457.1823,232.3025)"><path
           d="m 0,0 h -4.831 v 11.148 c 0,0.632 -0.107,1.2 -0.327,1.701 -0.216,0.502 -0.509,0.933 -0.881,1.292 -0.371,0.358 -0.807,0.635 -1.312,0.827 -0.498,0.191 -1.041,0.288 -1.624,0.288 H -17.43 V 0 h -4.831 v 17.689 c 0,0.335 0.063,0.647 0.186,0.939 0.123,0.292 0.297,0.545 0.52,0.762 0.223,0.217 0.483,0.386 0.781,0.511 0.296,0.124 0.613,0.186 0.947,0.186 h 10.889 c 0.606,0 1.25,-0.068 1.921,-0.204 0.677,-0.136 1.346,-0.358 2.007,-0.66 0.666,-0.303 1.298,-0.688 1.896,-1.153 0.602,-0.464 1.137,-1.027 1.598,-1.69 0.468,-0.663 0.836,-1.428 1.108,-2.295 C -0.137,13.217 0,12.239 0,11.148 Z"
           style="fill:#afca0b;fill-opacity:1;fill-rule:nonzero;stroke:none"
           id="path242" /></g><g
         id="g244"
         transform="translate(483.03,245.737)"><path
           d="m 0,0 c 0,-0.669 -0.118,-1.39 -0.353,-2.165 -0.234,-0.774 -0.617,-1.492 -1.144,-2.155 -0.524,-0.663 -1.212,-1.218 -2.06,-1.663 -0.85,-0.447 -1.88,-0.669 -3.095,-0.669 h -8.715 v 4.589 h 8.715 c 0.658,0 1.164,0.201 1.524,0.604 0.36,0.403 0.538,0.901 0.538,1.496 0,0.632 -0.2,1.128 -0.601,1.486 -0.406,0.359 -0.892,0.54 -1.461,0.54 h -8.715 c -0.657,0 -1.163,-0.202 -1.524,-0.604 -0.36,-0.403 -0.539,-0.901 -0.539,-1.496 v -6.745 c 0,-0.646 0.201,-1.147 0.606,-1.506 0.401,-0.358 0.899,-0.538 1.494,-0.538 h 8.678 v -4.609 h -8.715 c -0.669,0 -1.39,0.117 -2.163,0.353 -0.777,0.236 -1.494,0.617 -2.156,1.143 -0.665,0.526 -1.218,1.213 -1.665,2.062 -0.446,0.85 -0.669,1.881 -0.669,3.095 V 0 c 0,0.669 0.12,1.39 0.354,2.165 0.233,0.774 0.616,1.492 1.141,2.155 0.527,0.663 1.214,1.217 2.066,1.663 0.848,0.447 1.877,0.669 3.092,0.669 h 8.715 c 0.669,0 1.39,-0.117 2.167,-0.353 C -3.712,6.063 -2.995,5.683 -2.33,5.156 -1.668,4.631 -1.114,3.943 -0.669,3.094 -0.223,2.244 0,1.213 0,0"
           style="fill:#afca0b;fill-opacity:1;fill-rule:nonzero;stroke:none"
           id="path246" /></g><g
         id="g248"
         transform="translate(505.7009,239.0847)"><path
           d="M 0,0 C 0,-0.831 -0.104,-1.576 -0.316,-2.239 -0.528,-2.902 -0.807,-3.484 -1.152,-3.986 -1.498,-4.487 -1.903,-4.915 -2.36,-5.269 -2.817,-5.621 -3.297,-5.909 -3.802,-6.132 -4.3,-6.355 -4.81,-6.519 -5.326,-6.625 -5.839,-6.73 -6.325,-6.782 -6.783,-6.782 h -13.081 v 4.831 H -6.82 c 0.658,0 1.152,0.167 1.487,0.502 0.334,0.334 0.501,0.817 0.501,1.449 -0.063,1.287 -0.713,1.933 -1.951,1.933 h -7.488 c -1.067,0 -1.97,0.185 -2.713,0.557 -0.744,0.371 -1.349,0.836 -1.81,1.394 -0.469,0.557 -0.803,1.157 -1.004,1.802 -0.208,0.645 -0.308,1.245 -0.308,1.802 0,1.078 0.193,1.985 0.576,2.723 0.383,0.737 0.866,1.334 1.449,1.793 0.584,0.459 1.216,0.79 1.895,0.994 0.681,0.204 1.32,0.307 1.915,0.307 H -2.397 V 8.474 h -11.837 c -0.249,0 -0.443,-0.029 -0.583,-0.084 -0.146,-0.056 -0.249,-0.13 -0.321,-0.223 -0.066,-0.093 -0.107,-0.191 -0.118,-0.298 -0.012,-0.105 -0.018,-0.208 -0.018,-0.307 0.01,-0.198 0.047,-0.352 0.111,-0.463 0.062,-0.113 0.138,-0.192 0.234,-0.243 0.089,-0.049 0.197,-0.078 0.312,-0.083 0.119,-0.005 0.234,-0.009 0.346,-0.009 h 7.488 c 1.238,0 2.294,-0.223 3.159,-0.669 0.866,-0.447 1.568,-1.007 2.1,-1.682 C -0.992,3.738 -0.606,3.005 -0.36,2.211 -0.123,1.418 0,0.682 0,0"
           style="fill:#afca0b;fill-opacity:1;fill-rule:nonzero;stroke:none"
           id="path250" /></g><g
         id="g252"
         transform="translate(528.5007,239.0847)"><path
           d="m 0,0 c 0,-0.831 -0.104,-1.576 -0.315,-2.239 -0.212,-0.663 -0.492,-1.245 -0.837,-1.747 -0.345,-0.501 -0.75,-0.929 -1.207,-1.283 -0.457,-0.352 -0.937,-0.64 -1.443,-0.863 -0.498,-0.223 -1.007,-0.387 -1.523,-0.493 -0.513,-0.105 -1,-0.157 -1.457,-0.157 h -13.082 v 4.831 h 13.045 c 0.657,0 1.152,0.167 1.486,0.502 0.335,0.334 0.502,0.817 0.502,1.449 -0.064,1.287 -0.714,1.933 -1.951,1.933 h -7.489 c -1.067,0 -1.969,0.185 -2.712,0.557 -0.745,0.371 -1.35,0.836 -1.811,1.394 -0.468,0.557 -0.803,1.157 -1.003,1.802 -0.208,0.645 -0.308,1.245 -0.308,1.802 0,1.078 0.193,1.985 0.576,2.723 0.383,0.737 0.865,1.334 1.449,1.793 0.583,0.459 1.215,0.79 1.895,0.994 0.68,0.204 1.32,0.307 1.914,0.307 H -2.396 V 8.474 h -11.837 c -0.249,0 -0.443,-0.029 -0.584,-0.084 -0.145,-0.056 -0.249,-0.13 -0.32,-0.223 -0.067,-0.093 -0.107,-0.191 -0.119,-0.298 -0.011,-0.105 -0.018,-0.208 -0.018,-0.307 0.011,-0.198 0.048,-0.352 0.111,-0.463 0.063,-0.113 0.138,-0.192 0.234,-0.243 0.089,-0.049 0.198,-0.078 0.313,-0.083 0.118,-0.005 0.233,-0.009 0.345,-0.009 h 7.489 c 1.237,0 2.293,-0.223 3.159,-0.669 0.865,-0.447 1.568,-1.007 2.1,-1.682 C -0.992,3.738 -0.605,3.005 -0.36,2.211 -0.122,1.418 0,0.682 0,0"
           style="fill:#afca0b;fill-opacity:1;fill-rule:nonzero;stroke:none"
           id="path254" /></g></g></g><text
     xml:space="preserve"
     transform="scale(1.1102393,0.90070674)"
     style="font-variant:normal;font-weight:normal;font-stretch:normal;font-size:13.5025px;font-family:Allura;-inkscape-font-specification:Allura-Regular;writing-mode:lr-tb;fill:#ffffff;fill-opacity:1;fill-rule:nonzero;stroke:none;stroke-width:0.317749"
     id="text258"
     x="37.680744"
     y="155.73814"><tspan
       x="37.680744 44.958576 49.265873 54.329304 58.6366 62.498295 65.549843 71.072365 75.379646 78.336708 85.439003 90.178352 96.186958 100.44022 104.43696 108.74427 111.91734 115.77906 118.223 120.66694 123.11088 125.55485"
       y="155.73814"
       sodipodi:role="line"
       id="tspan256"
       style="stroke-width:0.317749">Redefine Yourself.....</tspan></text></svg>
