<?xml version="1.0" standalone="no"?>
<!DOCTYPE svg PUBLIC "-//W3C//DTD SVG 20010904//EN"
 "http://www.w3.org/TR/2001/REC-SVG-20010904/DTD/svg10.dtd">
<svg version="1.0" xmlns="http://www.w3.org/2000/svg"
 width="840.000000pt" height="840.000000pt" viewBox="0 0 840.000000 840.000000"
 preserveAspectRatio="xMidYMid meet">
<metadata>
Created by potrace 1.14, written by Peter Selinger 2001-2017
</metadata>
<g transform="translate(0.000000,840.000000) scale(0.100000,-0.100000)"
fill="#000000" stroke="none">
<path d="M2653 7948 c-481 -797 -858 -1860 -1033 -2908 -244 -1462 -69 -2719
495 -3565 327 -491 820 -877 1355 -1060 559 -191 1121 -129 1647 183 511 303
976 847 1304 1527 382 792 542 1683 432 2405 -16 104 -32 160 -33 112 -1 -66
-91 -404 -168 -632 -274 -808 -712 -1568 -1187 -2059 -328 -339 -692 -557
-1029 -616 -128 -22 -334 -20 -456 5 -319 65 -646 259 -896 530 -159 173 -295
390 -404 644 -361 843 -441 2121 -234 3786 61 493 145 1010 255 1569 22 112
38 205 36 207 -2 3 -40 -55 -84 -128z"/>
<path d="M4315 5034 c-380 -43 -684 -251 -843 -576 -198 -406 -122 -877 194
-1192 132 -133 287 -222 472 -274 88 -24 112 -27 262 -26 145 1 177 4 262 27
370 99 646 374 745 743 23 87 26 119 27 259 1 181 -17 275 -78 415 -97 225
-292 424 -519 530 -160 75 -363 112 -522 94z"/>
</g>
</svg>
